<?xml version="1.0" encoding="UTF-8"?>
<svg id="Layer_1" xmlns="http://www.w3.org/2000/svg" version="1.1" viewBox="0 0 282.04 284.64">
  <!-- Generator: Adobe Illustrator 30.4.0, SVG Export Plug-In . SVG Version: 2.1.4 Build 226)  -->
  <defs>
    <style>
      .st0 {
        fill: #eeeeef;
      }
    </style>
  </defs>
  <g>
    <path class="st0" d="M37.45,209.43v24.24s10.07,0,10.07,0v-24.45c0-19.75,16.01-35.76,35.76-35.76h0c19.75,0,35.76,16.01,35.76,35.76v24.45s10.07,0,10.07,0v-24.24c0-25.31-20.52-45.84-45.83-45.84h0c-25.31,0-45.83,20.52-45.83,45.84Z"/>
    <path class="st0" d="M52.37,215.37v18.3s6.79,0,6.79,0v-18.45c0-14.9,10.8-26.99,24.12-26.99h0c13.32,0,24.12,12.09,24.12,26.99v18.45s6.79,0,6.79,0v-18.3c0-19.11-13.84-34.6-30.92-34.6h0c-17.07,0-30.92,15.49-30.92,34.6Z"/>
    <circle class="st0" cx="83.29" cy="215.28" r="14.53"/>
  </g>
  <g>
    <polygon class="st0" points="230.12 95.56 224.64 96.05 226.96 122.37 200.64 124.68 201.12 130.16 232.92 127.37 230.12 95.56"/>
    <polygon class="st0" points="244.1 107.28 238.62 107.76 240.93 134.08 214.61 136.4 215.09 141.88 246.9 139.08 244.1 107.28"/>
    <polygon class="st0" points="216.87 84.45 211.39 84.93 213.7 111.25 187.38 113.56 187.86 119.05 219.66 116.25 216.87 84.45"/>
    <polygon class="st0" points="202.27 72.21 196.79 72.69 199.1 99.01 172.78 101.33 173.26 106.81 205.07 104.01 202.27 72.21"/>
  </g>
  <polygon class="st0" points="112.11 112.86 79.02 112.86 79.02 92.32 58.32 92.32 58.32 75.75 37.45 75.75 37.45 42.91 70.55 42.91 70.55 59.48 91.42 59.48 91.42 80.02 112.11 80.02 112.11 112.86"/>
  <circle class="st0" cx="230.75" cy="215.17" r="17.75"/>
</svg>